# xmcd
# 
# Track frame offsets:
#     150
#     11320
#     42737
#     76197
#     84897
#     124985
#     131125
#     153567
#     168457
#     199232
#     226920
#     234467
#     255237
#     308565
# 
# Disc length: 4122
# 
# Revision: 0
# Processed by: cddbd v1.5.2PL0 Copyright (c) Steve Scherf et al.
# Submitted via: BonkEnc v1.0beta4
# 
DISCID=a810180e
DTITLE=Lauryn Hill - MTV Unplugged 2.0 [disc 1]
DYEAR=2002
DGENRE=Hip-Hop
TTITLE0=Intro
TTITLE1=Mr. Intentional
TTITLE2=Adam Lives In Theory
TTITLE3=Interlude 1
TTITLE4=Oh Jerusalem
TTITLE5=Interlude 2
TTITLE6=Freedom Time
TTITLE7=Interlude 3
TTITLE8=I Find It Hard to Say (Rebel)
TTITLE9=Just Like Water
TTITLE10=Interlude 4
TTITLE11=Just Want You Around
TTITLE12=I Gotta Find Peace of Mind
TTITLE13=Cunting Copy Protection Track.  Cracked HA HA HA!!!
EXTD=ID3G: 0
EXTT0=
EXTT1=
EXTT2=
EXTT3=
EXTT4=
EXTT5=
EXTT6=
EXTT7=
EXTT8=
EXTT9=
EXTT10=
EXTT11=
EXTT12=
EXTT13=
PLAYORDER=
